<?xml version="1.0" encoding="UTF-8" standalone="no"?> <svg xmlns="http://www.w3.org/2000/svg" xmlns:xlink="http://www.w3.org/1999/xlink" xmlns:serif="http://www.serif.com/" width="100%" height="100%" viewBox="0 0 180 100" version="1.1" xml:space="preserve" style="fill-rule:evenodd;clip-rule:evenodd;stroke-linejoin:round;stroke-miterlimit:2;"> <g> <g transform="matrix(1,0,0,1,-0.24,0.48)"> <path d="M176.128,82.929C168.021,92.859 155.618,103.089 119.303,96.9L118.957,96.839C115.843,96.303 112.558,95.645 109.082,94.856C60.558,83.854 19.434,92.951 0,99L0,-1.27L180.205,-1.27L180.207,71.825C180.169,76.012 178.693,79.85 176.202,82.84L176.128,82.929Z" style="fill:rgb(0,76,108);fill-rule:nonzero;"></path> </g> <g transform="matrix(1,0,0,1,-0.24,0.48)"> <path d="M19.613,19.48L34.872,19.48L34.872,22.485L22.818,22.485L22.818,29.53L34.038,29.53L34.038,32.535L22.818,32.535L22.818,40.115L35.474,40.115L35.474,43.12L19.613,43.12L19.613,19.48Z" style="fill:rgb(176,210,53);fill-rule:nonzero;"></path> </g> <g transform="matrix(1,0,0,1,-0.24,0.48)"> <path d="M45.49,30.699L37.543,19.48L41.65,19.48L47.794,28.562L53.871,19.48L57.878,19.48L49.998,30.666L58.679,43.12L54.472,43.12L47.694,32.869L40.883,43.12L36.909,43.12L45.49,30.699Z" style="fill:rgb(176,210,53);fill-rule:nonzero;"></path> </g> <g transform="matrix(1,0,0,1,-0.24,0.48)"> <path d="M64.855,29.897L69.063,29.897C69.686,29.897 70.304,29.848 70.916,29.748C71.528,29.647 72.073,29.464 72.552,29.196C73.03,28.93 73.415,28.546 73.704,28.045C73.993,27.544 74.139,26.892 74.139,26.092C74.139,25.29 73.993,24.639 73.704,24.138C73.415,23.638 73.03,23.253 72.552,22.986C72.073,22.719 71.528,22.535 70.916,22.435C70.304,22.335 69.686,22.285 69.063,22.285L64.855,22.285L64.855,29.897ZM61.65,19.48L69.965,19.48C71.478,19.48 72.725,19.686 73.704,20.098C74.684,20.51 75.457,21.033 76.024,21.667C76.593,22.302 76.987,23.014 77.21,23.805C77.433,24.595 77.544,25.356 77.544,26.092C77.544,26.826 77.433,27.589 77.21,28.379C76.987,29.169 76.593,29.881 76.024,30.515C75.457,31.15 74.684,31.673 73.704,32.085C72.725,32.497 71.478,32.702 69.965,32.702L64.855,32.702L64.855,43.12L61.65,43.12L61.65,19.48Z" style="fill:rgb(176,210,53);fill-rule:nonzero;"></path> </g> <g transform="matrix(1,0,0,1,-0.24,0.48)"> <path d="M81.45,19.48L84.655,19.48L84.655,40.115L95.507,40.115L95.507,43.12L81.45,43.12L81.45,19.48Z" style="fill:rgb(176,210,53);fill-rule:nonzero;"></path> </g> <g transform="matrix(1,0,0,1,-0.24,0.48)"> <path d="M108.295,40.716C109.653,40.716 110.877,40.466 111.968,39.965C113.059,39.464 113.994,38.791 114.773,37.944C115.552,37.099 116.153,36.103 116.577,34.956C116.999,33.81 117.21,32.592 117.21,31.3C117.21,30.01 116.999,28.791 116.577,27.644C116.153,26.498 115.552,25.502 114.773,24.655C113.994,23.809 113.059,23.137 111.968,22.636C110.877,22.135 109.653,21.885 108.295,21.885C106.938,21.885 105.713,22.135 104.623,22.636C103.532,23.137 102.597,23.809 101.818,24.655C101.039,25.502 100.438,26.498 100.015,27.644C99.592,28.791 99.38,30.01 99.38,31.3C99.38,32.592 99.592,33.81 100.015,34.956C100.438,36.103 101.039,37.099 101.818,37.944C102.597,38.791 103.532,39.464 104.623,39.965C105.713,40.466 106.938,40.716 108.295,40.716ZM108.295,43.721C106.493,43.721 104.834,43.404 103.321,42.769C101.806,42.135 100.51,41.262 99.43,40.148C98.351,39.035 97.505,37.723 96.893,36.208C96.28,34.695 95.975,33.059 95.975,31.3C95.975,29.542 96.28,27.906 96.893,26.392C97.505,24.879 98.351,23.565 99.43,22.452C100.51,21.339 101.806,20.465 103.321,19.831C104.834,19.196 106.493,18.879 108.295,18.879C110.098,18.879 111.756,19.196 113.271,19.831C114.784,20.465 116.081,21.339 117.161,22.452C118.24,23.565 119.085,24.879 119.698,26.392C120.31,27.906 120.617,29.542 120.617,31.3C120.617,33.059 120.31,34.695 119.698,36.208C119.085,37.723 118.24,39.035 117.161,40.148C116.081,41.262 114.784,42.135 113.271,42.769C111.756,43.404 110.098,43.721 108.295,43.721Z" style="fill:rgb(176,210,53);fill-rule:nonzero;"></path> </g> <g transform="matrix(1,0,0,1,-0.24,0.48)"> <path d="M128.429,29.897L132.636,29.897C133.259,29.897 133.876,29.848 134.49,29.748C135.101,29.647 135.647,29.464 136.125,29.196C136.604,28.93 136.988,28.546 137.278,28.045C137.567,27.544 137.711,26.892 137.711,26.092C137.711,25.29 137.567,24.639 137.278,24.138C136.988,23.638 136.604,23.253 136.125,22.986C135.647,22.719 135.101,22.535 134.49,22.435C133.876,22.335 133.259,22.285 132.636,22.285L128.429,22.285L128.429,29.897ZM125.224,19.48L133.538,19.48C135.051,19.48 136.297,19.686 137.278,20.098C138.256,20.51 139.031,21.033 139.598,21.667C140.165,22.302 140.56,23.014 140.784,23.805C141.005,24.595 141.117,25.356 141.117,26.092C141.117,26.848 140.984,27.577 140.716,28.278C140.45,28.979 140.065,29.614 139.565,30.181C139.064,30.749 138.452,31.228 137.728,31.617C137.004,32.007 136.198,32.247 135.307,32.335L142.019,43.12L138.012,43.12L132.001,32.702L128.429,32.702L128.429,43.12L125.224,43.12L125.224,19.48Z" style="fill:rgb(176,210,53);fill-rule:nonzero;"></path> </g> <g transform="matrix(1,0,0,1,-0.24,0.48)"> <path d="M145.624,19.48L160.883,19.48L160.883,22.485L148.83,22.485L148.83,29.53L160.048,29.53L160.048,32.535L148.83,32.535L148.83,40.115L161.484,40.115L161.484,43.12L145.624,43.12L145.624,19.48Z" style="fill:rgb(176,210,53);fill-rule:nonzero;"></path> </g> <g transform="matrix(1,0,0,1,-0.24,0.48)"> <path d="M40.835,39.714C40.509,39.714 40.38,39.77 40.38,39.942C40.38,40.341 40.9,41.024 40.9,42.45C40.9,48.203 38.426,56.579 36.309,60.453C35.267,62.333 32.564,67.29 30.741,67.29C29.959,67.29 29.601,65.979 29.601,63.7C29.601,58.289 31.719,52.306 32.923,49.742C33.085,49.571 33.183,49.286 33.183,49.001C33.183,47.69 32.238,46.437 31.62,46.437C31.099,46.437 30.285,47.406 29.796,47.918C28.038,49.628 22.601,56.864 20.549,60.396C20.549,59.143 24.88,50.141 28.625,43.361C28.625,43.361 29.08,42.733 29.113,41.879C29.113,39.315 27.03,38.289 25.662,38.289L26.408,40.17C26.451,40.279 26.449,40.404 26.403,40.513C20.78,53.777 17.423,59.279 17.423,64.214C17.423,65.923 18.042,67.689 19.019,68.088C19.214,68.088 19.247,67.974 19.247,67.859C19.247,67.689 19.214,67.518 19.181,67.007C19.181,64.101 26.476,53.616 29.894,50.199C28.592,52.989 27.648,58.232 27.648,62.505C27.648,66.15 29.016,69.798 31.099,69.798C35.658,69.798 43.439,52.876 43.439,44.557C43.439,42.506 42.691,39.942 40.835,39.714Z" style="fill:white;fill-rule:nonzero;"></path> </g> <g transform="matrix(1,0,0,1,-0.24,0.48)"> <path d="M50.493,52.912C50.652,53.158 50.683,53.406 50.683,53.734C50.683,54.764 50.302,55.587 50.049,55.587C49.986,55.546 49.986,55.463 49.986,55.423C49.986,55.258 50.049,55.175 50.145,54.97C50.208,54.724 50.302,54.351 50.302,54.187C50.302,53.323 49.479,53.2 49.034,53.2C46.973,53.2 43.959,55.998 42.373,58.633C41.739,59.662 40.851,61.555 40.787,62.749C42.405,60.361 46.37,56.986 46.37,56.986C46.623,56.698 46.941,56.41 47.29,56.41C47.798,56.41 48.59,57.603 48.59,57.851C48.559,57.934 48.463,57.934 48.463,57.934C47.829,58.51 47.321,60.486 47.321,60.525C47.13,61.309 47.005,62.131 47.005,62.584C47.1,64.641 47.829,64.189 47.829,64.6C47.798,64.683 47.639,64.725 47.512,64.725C46.148,64.683 45.673,62.625 45.673,61.514C45.673,59.868 46.243,58.139 46.243,58.139C45.546,58.674 44.911,59.374 43.546,60.937C41.263,63.613 40.787,65.26 40.344,65.26C39.804,65.26 39.17,63.984 39.042,63.159L39.042,62.79C39.042,58.099 44.911,50.647 48.559,50.647C48.845,50.647 49.098,50.688 49.257,50.935C50.145,51.842 50.493,52.912 50.493,52.912Z" style="fill:white;fill-rule:nonzero;"></path> </g> <g transform="matrix(1,0,0,1,-0.24,0.48)"> <path d="M56.869,52.788C54.839,55.587 52.682,58.551 51.128,62.049C51.73,61.433 54.205,59.127 54.775,59.045C54.839,59.045 54.902,59.085 54.902,59.168C54.902,59.333 54.744,59.538 54.522,59.702C53.95,60.237 53.38,60.814 52.809,61.433C52.016,62.297 51.318,63.242 50.843,64.395C50.716,64.806 50.493,64.931 50.176,64.931C49.416,64.519 49.192,63.983 49.192,63.201C49.192,60.979 52.587,55.259 53.95,53.282C53.095,53.57 52.523,53.735 52.302,53.735C51.762,53.735 51.477,53.117 51.35,52.335C51.477,52.376 51.667,52.665 52.396,52.665C53.031,52.665 54.49,52.253 54.49,52.253C55.22,51.225 55.601,50.936 57.979,47.025C58.138,46.779 58.169,46.697 58.169,46.079C58.169,45.914 58.106,45.668 58.106,45.585C58.106,45.504 58.233,45.461 58.296,45.461C58.899,45.504 60.231,46.407 60.231,47.601C60.231,49.002 59.342,49.455 57.503,51.924C58.074,51.883 59.121,51.718 59.185,51.718C59.375,51.718 60.041,51.718 60.041,52.047C60.041,52.089 60.009,52.17 59.819,52.253C58.424,52.458 57.44,52.706 56.869,52.788Z" style="fill:white;fill-rule:nonzero;"></path> </g> <g transform="matrix(1,0,0,1,-0.24,0.48)"> <path d="M55.474,61.432C55.474,57.521 59.628,52.705 62.641,51.142C63.054,50.935 63.403,50.895 63.593,50.895C64.323,50.895 65.623,53.158 65.75,53.94C65.75,56.245 62.166,58.674 60.294,58.674C59.565,58.674 59.312,58.468 59.312,58.303C59.312,58.057 59.819,58.098 59.978,58.057C61.817,57.521 64.354,54.311 64.354,53.076C62.801,53.569 60.58,55.464 58.93,57.644C57.979,58.881 56.9,60.896 56.9,62.379C56.9,62.955 57.186,63.573 57.82,63.573C59.185,63.448 61.69,61.184 62.832,59.703C62.927,59.538 63.054,59.496 63.118,59.496C63.212,59.496 63.244,59.58 63.244,59.743C63.118,60.361 61.532,62.625 59.914,64.106C59.248,64.724 58.677,65.136 58.138,65.22C56.742,65.22 55.474,62.995 55.474,61.432Z" style="fill:white;fill-rule:nonzero;"></path> </g> <g transform="matrix(1,0,0,1,-0.24,0.48)"> <path d="M67.717,58.716C71.142,54.517 72.919,53.118 72.919,53.118C73.046,52.953 73.141,52.912 73.268,52.912C73.68,52.912 74.409,53.775 74.409,54.393C74.409,54.764 74.03,55.176 73.585,55.752C73.141,56.37 72.666,57.232 72.666,58.099C72.666,58.345 72.76,58.633 72.887,58.839C72.823,58.88 72.76,58.88 72.728,58.88C71.998,58.88 71.492,57.892 71.492,56.904C71.492,56.245 71.555,55.629 71.873,54.928C69.905,57.273 67.336,59.785 65.782,62.421C65.243,63.324 64.671,64.476 64.671,65.219C63.941,65.136 63.688,64.476 63.688,63.613C63.688,62.625 64.164,61.72 64.354,61.226C65.529,58.962 66.765,56.493 68.985,52.582C66.892,54.186 66.733,54.393 66.575,54.393C66.417,54.393 66.322,54.228 66.322,54.186C66.322,53.982 66.575,53.775 66.575,53.775C67.272,53.158 69.334,51.224 69.905,51.224C70.508,51.224 71.301,52.089 71.301,52.87C71.205,53.281 71.015,53.569 70.762,53.94L67.717,58.716Z" style="fill:white;fill-rule:nonzero;"></path> </g> <g transform="matrix(1,0,0,1,-0.24,0.48)"> <path d="M74.758,63.284C76.217,63.284 80.975,56.656 81.736,56.656C81.768,56.656 81.799,56.698 81.799,56.78C81.799,56.863 81.768,56.986 81.736,57.069C80.056,59.457 76.407,65.136 74.821,65.136C74.124,65.136 72.854,64.106 72.854,62.256C72.854,56.574 80.722,44.968 85.447,41.47C85.797,41.224 86.114,41.017 86.367,41.017C87.128,41.182 88.239,42.457 88.239,43.609C88.239,44.557 87.477,46.368 84.463,50.319C83.228,51.966 78.596,57.809 76.725,57.933C76.693,57.933 76.502,57.892 76.502,57.809C76.502,57.603 78.152,56.245 79.294,54.928C84.305,49.165 87.001,43.897 86.875,43.857C86.844,43.857 84.147,46.161 81.958,48.837C79.706,51.636 74.631,58.468 74.346,62.831C74.346,63.284 74.536,63.284 74.758,63.284Z" style="fill:white;fill-rule:nonzero;"></path> </g> <g transform="matrix(1,0,0,1,-0.24,0.48)"> <path d="M83.037,59.374C82.719,60.073 82.244,61.39 82.244,62.378C82.244,63.037 82.433,63.572 83.069,63.654C85.003,63.572 87.477,59.743 88.493,57.644C88.905,56.821 89.127,55.957 89.127,55.052C89.095,54.392 88.682,54.641 88.65,54.352C88.682,53.941 89.316,53.941 89.539,53.941C90.237,53.941 90.808,54.929 90.808,55.793C90.808,58.139 89.095,60.896 87.319,62.791C86.082,64.066 84.781,65.054 83.544,65.054C82.942,65.054 82.402,64.847 81.863,64.312C81.229,63.654 80.816,62.749 80.816,61.555C80.816,56.903 85.257,51.554 88.587,51.059C89.159,51.059 89.571,51.348 89.888,51.759C90.268,52.253 90.681,52.789 90.902,53.323C90.966,53.363 90.966,53.528 90.966,53.57C90.966,53.611 90.902,53.941 90.839,53.941C90.808,53.941 90.745,53.941 90.713,53.899C90.364,53.528 89.92,53.363 89.539,53.363C88.968,53.363 88.493,53.57 88.334,53.611C86.875,54.229 84.305,56.615 83.037,59.374Z" style="fill:white;fill-rule:nonzero;"></path> </g> <g transform="matrix(1,0,0,1,-0.24,0.48)"> <path d="M92.615,59.374C92.298,60.073 91.822,61.39 91.822,62.378C91.822,63.037 92.012,63.572 92.647,63.654C94.582,63.572 97.056,59.743 98.071,57.644C98.482,56.821 98.705,55.957 98.705,55.052C98.674,54.392 98.261,54.641 98.229,54.352C98.261,53.941 98.896,53.941 99.118,53.941C99.816,53.941 100.387,54.929 100.387,55.793C100.387,58.139 98.674,60.896 96.898,62.791C95.66,64.066 94.36,65.054 93.123,65.054C92.521,65.054 91.981,64.847 91.442,64.312C90.808,63.654 90.396,62.749 90.396,61.555C90.396,56.903 94.836,51.554 98.166,51.059C98.736,51.059 99.148,51.348 99.467,51.759C99.847,52.253 100.26,52.789 100.483,53.323C100.545,53.363 100.545,53.528 100.545,53.57C100.545,53.611 100.483,53.941 100.418,53.941C100.387,53.941 100.324,53.941 100.291,53.899C99.943,53.528 99.499,53.363 99.118,53.363C98.547,53.363 98.071,53.57 97.912,53.611C96.453,54.229 93.884,56.615 92.615,59.374Z" style="fill:white;fill-rule:nonzero;"></path> </g> <g transform="matrix(1,0,0,1,-0.24,0.48)"> <path d="M107.959,62.749C107.959,63.365 108.086,64.189 108.657,64.189C108.784,64.189 108.816,64.271 108.816,64.312C108.784,64.6 108.276,64.724 107.959,64.724C106.819,64.642 105.961,63.448 105.961,61.927C105.961,59.374 107.707,56.657 109.101,54.723C108.784,54.229 108.721,54.104 108.721,53.941C108.752,53.693 108.976,53.528 109.196,53.528C109.418,53.57 109.514,53.735 109.705,53.981C111.29,52.088 114.367,49.249 116.809,48.796C117.349,48.796 117.634,48.878 117.697,49.166C115.287,50.482 112.589,53.158 110.655,55.793C112.051,58.139 113.352,62.213 116.175,62.584C116.809,62.584 117.349,62.048 117.697,61.597C117.761,61.514 117.856,61.432 117.951,61.432C117.983,61.432 118.078,61.432 118.078,61.555C118.078,61.72 117.983,61.927 117.951,62.008C117.031,63.572 116.332,64.682 114.779,64.682C112.749,64.682 111.353,60.814 109.926,56.903C107.992,60.28 107.959,62.749 107.959,62.749ZM118.561,43.487C113.306,42.821 105.002,46.291 104.438,50.742C104.272,52.049 104.956,52.717 104.904,53.125C104.894,53.206 104.862,53.202 104.799,53.195C104.169,53.115 102.661,50.642 102.893,48.804C103.235,46.108 106.083,43.566 110.379,41.953C112.962,40.994 115.731,40.598 118.751,40.98C122.339,41.434 125.51,43.662 124.899,48.48C124.055,55.136 115.203,56.877 111.206,56.37C110.608,56.296 110.502,56.115 110.498,55.909C110.53,55.662 110.974,55.429 110.974,55.429C115.556,54.848 123.195,51.334 123.67,47.578C124.027,44.761 120.292,43.706 118.561,43.487Z" style="fill:white;fill-rule:nonzero;"></path> </g> <g transform="matrix(1,0,0,1,-0.24,0.48)"> <path d="M119.124,61.432C119.124,57.521 123.28,52.705 126.292,51.142C126.705,50.935 127.054,50.895 127.244,50.895C127.974,50.895 129.274,53.158 129.401,53.94C129.401,56.245 125.817,58.674 123.945,58.674C123.217,58.674 122.962,58.468 122.962,58.303C122.962,58.057 123.469,58.098 123.629,58.057C125.468,57.521 128.005,54.311 128.005,53.076C126.452,53.569 124.23,55.464 122.582,57.644C121.63,58.881 120.552,60.896 120.552,62.379C120.552,62.955 120.838,63.573 121.471,63.573C122.835,63.448 125.341,61.184 126.484,59.703C126.579,59.538 126.705,59.496 126.769,59.496C126.865,59.496 126.896,59.58 126.896,59.743C126.769,60.361 125.182,62.625 123.564,64.106C122.898,64.724 122.327,65.136 121.789,65.22C120.392,65.22 119.124,62.995 119.124,61.432Z" style="fill:white;fill-rule:nonzero;"></path> </g> <g transform="matrix(1,0,0,1,-0.24,0.48)"> <path d="M143.993,50.647C143.865,50.647 143.832,50.607 143.832,50.482C143.865,50.031 145.8,45.174 146.529,45.174C146.911,45.339 147.703,46.078 147.703,46.614C147.671,47.52 145.007,49.824 144.245,50.442C144.214,50.482 144.087,50.647 143.993,50.647ZM142.183,52.254C142.248,52.129 142.31,51.966 142.31,51.883C142.31,51.841 142.279,51.718 142.279,51.636C142.279,51.553 142.279,51.513 142.342,51.513C142.564,51.513 142.755,51.636 142.976,51.759C143.419,52.089 143.993,52.705 143.993,53.488C143.993,53.611 143.928,53.816 143.832,53.981C143.611,54.434 143.105,55.011 142.564,55.834C140.821,58.345 139.551,60.361 138.631,62.461C138.345,63.159 138.187,63.695 138.187,64.23C138.187,64.395 138.377,64.271 138.442,64.518C138.377,64.641 138.315,64.641 138.218,64.641C137.045,64.436 136.949,63.777 136.918,63.036C136.918,60.073 142.025,52.665 142.183,52.254Z" style="fill:white;fill-rule:nonzero;"></path> </g> <g transform="matrix(1,0,0,1,-0.24,0.48)"> <path d="M144.182,59.374C143.864,60.073 143.389,61.39 143.389,62.378C143.389,63.037 143.58,63.572 144.213,63.654C146.148,63.572 148.624,59.743 149.638,57.644C150.049,56.821 150.272,55.957 150.272,55.052C150.24,54.392 149.828,54.641 149.795,54.352C149.828,53.941 150.461,53.941 150.683,53.941C151.382,53.941 151.953,54.929 151.953,55.793C151.953,58.139 150.24,60.896 148.464,62.791C147.227,64.066 145.926,65.054 144.689,65.054C144.086,65.054 143.547,64.847 143.008,64.312C142.374,63.654 141.961,62.749 141.961,61.555C141.961,56.903 146.402,51.554 149.733,51.059C150.302,51.059 150.715,51.348 151.033,51.759C151.415,52.253 151.826,52.789 152.048,53.323C152.112,53.363 152.112,53.528 152.112,53.57C152.112,53.611 152.048,53.941 151.985,53.941C151.953,53.941 151.89,53.941 151.858,53.899C151.509,53.528 151.064,53.363 150.683,53.363C150.113,53.363 149.638,53.57 149.479,53.611C148.02,54.229 145.45,56.615 144.182,59.374Z" style="fill:white;fill-rule:nonzero;"></path> </g> <g transform="matrix(1,0,0,1,-0.24,0.48)"> <path d="M156.488,51.636C156.964,51.636 157.916,52.459 157.916,53.2C157.82,54.31 154.776,58.263 153.982,59.662C154.837,58.674 159.502,53.281 160.802,52.747C160.961,52.705 161.12,52.665 161.246,52.665C161.721,52.665 162.515,53.529 162.515,54.228C162.515,54.393 162.515,54.517 161.912,55.34C160.707,57.192 158.645,60.484 158.613,62.544C158.613,63.159 158.645,64.188 159.343,64.188C159.374,64.188 159.406,64.23 159.406,64.271C159.406,64.601 159.057,64.725 158.772,64.725C157.79,64.725 156.995,63.408 156.995,61.926C156.995,59.497 158.074,57.52 159.881,54.351C159.406,54.764 158.741,55.423 157.979,56.245C156.202,58.139 153.982,60.732 152.937,62.256C152.047,63.573 151.73,64.188 151.73,64.518C151.73,64.641 151.762,64.725 151.794,64.807C151.762,64.89 151.667,64.89 151.571,64.89C151.127,64.89 150.334,64.395 150.334,63.283C150.334,62.584 150.715,61.926 150.715,61.926C151.667,60.115 152.746,57.934 155.759,52.705C154.807,53.406 154.015,54.022 153.887,54.022C153.73,54.022 153.665,53.899 153.665,53.817C153.665,53.364 155.759,51.924 156.012,51.759C156.171,51.676 156.329,51.636 156.488,51.636Z" style="fill:white;fill-rule:nonzero;"></path> </g> <g transform="matrix(1,0,0,1,-0.24,0.48)"> <path d="M121.227,68.734C86.037,62.891 55.287,70.317 40.875,74.912C54.977,70.522 84.819,63.922 120.031,71.905C122.553,72.477 124.937,72.954 127.197,73.344C128.322,72.144 129.647,70.389 129.647,70.389C129.647,70.389 128.472,72.202 127.448,73.388C158.497,78.68 165.457,67.43 171.613,59.485C164.995,67.439 160.958,75.333 121.227,68.734Z" style="fill:rgb(176,210,53);fill-rule:nonzero;"></path> </g> <g transform="matrix(1,0,0,1,-0.24,0.48)"> <path d="M69.311,70.991C54.513,71.873 37.512,75.876 29.997,78.748C29.997,78.748 63.642,58.645 115.599,73.157C115.599,73.157 92.466,69.612 69.311,70.991Z" style="fill:rgb(0,180,241);fill-rule:nonzero;"></path> </g> <g transform="matrix(1,0,0,1,-0.24,0.48)"> <path d="M173.127,65.857C173.127,65.857 159.759,78.358 134.61,75.247C134.61,75.247 160.512,82.908 173.127,65.857Z" style="fill:rgb(0,180,241);fill-rule:nonzero;"></path> </g> <g transform="matrix(1,0,0,1,-0.24,0.48)"> <path d="M125.144,74.601C125.144,74.766 125.207,74.889 125.335,74.889C126.254,74.889 127.904,72.831 128.537,72.008C130.093,70.074 131.842,66.124 132.795,64.066L135.014,63.613C134.253,65.219 133.778,66.164 133.112,67.358C131.558,70.24 128.188,76.33 125.525,76.33C124.574,76.33 124.097,75.589 124.097,74.56L125.144,74.601Z" style="fill:rgb(35,31,32);fill-rule:nonzero;"></path> </g> <g transform="matrix(1,0,0,1,-0.24,0.48)"> <path d="M138.567,53.117C138.567,53.117 138.092,51.759 137.394,51.017C137.363,50.935 137.235,50.647 136.823,50.647C134.604,50.812 131.875,53.158 130.479,54.929C129.116,56.657 127.275,59.99 127.275,62.666C127.275,62.872 127.275,63.242 127.371,63.572C127.562,64.312 127.942,65.219 128.481,65.219C129.05,65.219 130.162,62.954 131.716,61.184C132.921,59.785 134.445,57.975 135.238,57.274L133.175,63.037C132.32,63.365 130.192,64.645 128.591,66.532C128.037,67.186 127.327,68.025 126.637,68.955C127.05,69.014 127.462,69.073 127.867,69.13C129.664,66.73 131.85,64.543 132.794,64.066C131.843,66.124 130.091,70.074 128.539,72.009C127.904,72.831 126.254,74.889 125.334,74.889C125.207,74.889 125.145,74.766 125.145,74.601C125.155,74.337 125.207,74.048 125.29,73.742C124.935,73.68 124.579,73.618 124.217,73.553C124.14,73.895 124.098,74.233 124.098,74.56C124.098,75.589 124.574,76.33 125.525,76.33C128.19,76.33 131.557,70.24 133.113,67.358C133.779,66.164 134.254,65.219 135.015,63.613L135.49,63.407C135.49,63.407 135.776,63.365 135.776,63.037C135.713,62.831 135.49,62.791 135.3,62.791C135.681,61.762 136.665,59.662 137.078,58.304C137.14,58.057 137.268,57.726 137.268,57.603C137.268,57.191 136.95,56.986 136.601,56.657C136.03,56.164 135.776,56.204 135.808,56.204C135.522,56.204 134.223,57.274 132.921,58.551C131.335,60.155 129.528,62.048 128.957,62.749C128.957,62.626 129.021,61.967 129.432,60.896C129.843,59.743 130.701,58.222 132.604,55.999C132.604,55.957 135.238,53.323 137.14,53.323C137.583,53.323 138.314,53.528 138.377,54.352C138.377,54.929 138.06,55.382 138.029,55.586C138.029,55.628 138.029,55.669 138.092,55.751C138.537,55.751 138.79,54.31 138.79,53.941C138.79,53.611 138.726,53.363 138.567,53.117Z" style="fill:white;fill-rule:nonzero;"></path> </g> </g> </svg> 